<svg width="620" height="386" viewBox="0 0 620 386" xmlns="http://www.w3.org/2000/svg" font-family="'JetBrains Mono','Fira Code',ui-monospace,Menlo,Consolas,monospace">
  <rect x="0" y="0" width="620" height="386" rx="6" fill="#0a0e14" stroke="#1f2833" stroke-width="1"/>
  <text x="24" y="26" fill="#5ee6d8" font-size="12" letter-spacing="0.5">IDENTITY://WHOAMI</text>
  <rect x="588" y="14" width="6" height="11" fill="#5ee6d8">
  <animate attributeName="opacity" values="1;1;0;0" dur="1.1s" keyTimes="0;0.5;0.51;1" repeatCount="indefinite"/>
</rect>
  <line x1="24" y1="33" x2="596" y2="33" stroke="#1f2833" stroke-width="1"/>
  <text x="24" y="52" fill="#2fb8ab" font-size="12">$ whoami --verbose</text>
  <text x="24" y="86" font-size="12.5"><tspan fill="#5b6b7c">NAME........ </tspan><tspan fill="#c9d6e3">Mohammad Ahmad</tspan></text>
<text x="24" y="106" font-size="12.5"><tspan fill="#5b6b7c">ROLE........ </tspan><tspan fill="#c9d6e3">Software Engineer / Backend Developer</tspan></text>
<text x="24" y="126" font-size="12.5"><tspan fill="#5b6b7c">FOCUS....... </tspan><tspan fill="#c9d6e3">Backend Development &amp; Distributed Systems</tspan></text>
<text x="24" y="146" font-size="12.5"><tspan fill="#5b6b7c">EDUCATION... </tspan><tspan fill="#c9d6e3">Symbiosis Institute of Technology, Pune</tspan></text>
<text x="24" y="166" font-size="12.5"><tspan fill="#5b6b7c">STATUS...... </tspan><tspan fill="#c9d6e3">Building · Learning · Shipping</tspan></text>
<text x="24" y="192" fill="#5b6b7c" font-size="11" letter-spacing="1">STACK</text>
<text x="38" y="222" font-size="12.5"><tspan fill="#5b6b7c">LANG........ </tspan><tspan fill="#c9d6e3">Java, JavaScript, Python, TypeScript</tspan></text>
<text x="38" y="242" font-size="12.5"><tspan fill="#5b6b7c">BACKEND..... </tspan><tspan fill="#c9d6e3">Node.js, Express, FastAPI</tspan></text>
<text x="38" y="262" font-size="12.5"><tspan fill="#5b6b7c">DATABASE.... </tspan><tspan fill="#c9d6e3">PostgreSQL, MongoDB, Redis</tspan></text>
<text x="38" y="282" font-size="12.5"><tspan fill="#5b6b7c">INFRA....... </tspan><tspan fill="#c9d6e3">AWS, Docker, Kubernetes, GitHub Actions</tspan></text>
<text x="24" y="308" fill="#5b6b7c" font-size="11" letter-spacing="1">LINKS</text>
<text x="38" y="338" font-size="12.5"><tspan fill="#5b6b7c">GITHUB...... </tspan><tspan fill="#c9d6e3">github.com/Bitsnbytes14</tspan></text>
<text x="38" y="358" font-size="12.5"><tspan fill="#5b6b7c">LINKEDIN.... </tspan><tspan fill="#c9d6e3">linkedin.com/in/mohammad-ahmad141004</tspan></text>

  
<g stroke="#5b6b7c" stroke-width="1.2" fill="none" opacity="0.7">
  <path d="M4,14 L4,4 L14,4"/>
  <path d="M606,4 L616,4 L616,14"/>
  <path d="M4,372 L4,382 L14,382"/>
  <path d="M606,382 L616,382 L616,372"/>
</g>
</svg>